<svg width="130" height="16" fill="none" xmlns="http://www.w3.org/2000/svg">
    <g clip-path="url(#a)" fill="#000">
        <path d="M6.28 13.254C2.537 13.254 0 10.27 0 6.804 0 3.336 2.569.32 6.311.32c3.774 0 6.28 2.985 6.28 6.451 0 3.467-2.537 6.483-6.311 6.483zm0-11.618c-2.823 0-4.853 2.279-4.853 5.135 0 2.857 2.062 5.167 4.884 5.167 2.823 0 4.853-2.278 4.853-5.135 0-2.856-2.062-5.167-4.884-5.167zM20.17 13.253c-1.68 0-2.79-.93-3.488-1.957v4.621h-1.364v-12.1h1.364V5.68c.73-1.123 1.808-2.054 3.489-2.054 2.188 0 4.376 1.765 4.376 4.814 0 3.017-2.156 4.814-4.376 4.814zm-.221-8.408c-1.681 0-3.299 1.444-3.299 3.562 0 2.15 1.618 3.595 3.299 3.595 1.776 0 3.203-1.316 3.203-3.563 0-2.214-1.49-3.594-3.203-3.594zM31.08 12.066c1.27 0 2.126-.514 2.887-1.316l.856.77c-.92 1.027-2.03 1.733-3.774 1.733-2.506 0-4.567-1.957-4.567-4.814 0-2.696 1.84-4.814 4.377-4.814 2.695 0 4.25 2.182 4.25 4.91 0 .129 0 .257-.032.418h-7.2c.19 1.99 1.586 3.113 3.204 3.113zm-.253-7.286c-1.586 0-2.791 1.348-2.981 3.146h5.867c-.095-1.701-1.078-3.146-2.886-3.146zM37.518 13.029V3.818h1.364v1.604c.603-.995 1.554-1.797 3.14-1.797 2.22 0 3.488 1.508 3.488 3.69v5.746h-1.363V7.637c0-1.701-.92-2.792-2.538-2.792-1.585 0-2.727 1.155-2.727 2.888v5.296h-1.364zM57.182 13.028V1.827h-4.155V.543h9.705v1.316h-4.155v11.2h-1.395v-.031zM67.046 13.254c-2.728 0-4.726-2.182-4.726-4.814s1.998-4.846 4.757-4.846c2.728 0 4.758 2.182 4.758 4.814s-2.03 4.846-4.79 4.846zm0-8.44c-1.967 0-3.33 1.604-3.33 3.594 0 1.99 1.458 3.595 3.361 3.595 1.966 0 3.362-1.605 3.362-3.563 0-2.022-1.459-3.627-3.393-3.627zM78.336 15.951c-1.522 0-2.918-.417-4.154-1.283l.602-1.06c1.047.77 2.22 1.188 3.52 1.188 1.998 0 3.33-1.123 3.33-3.274v-1.09c-.792 1.058-1.902 1.957-3.583 1.957-2.189 0-4.282-1.637-4.282-4.333 0-2.728 2.125-4.365 4.282-4.365 1.712 0 2.822.867 3.552 1.862V3.884h1.364v7.638c0 2.889-1.84 4.43-4.63 4.43zm-.032-11.136c-1.744 0-3.171 1.187-3.171 3.113 0 1.893 1.459 3.177 3.171 3.177 1.745 0 3.362-1.251 3.362-3.145 0-1.894-1.617-3.145-3.362-3.145zM90.04 12.066c1.268 0 2.124-.514 2.885-1.316l.857.77c-.92 1.027-2.03 1.733-3.774 1.733-2.506 0-4.567-1.957-4.567-4.814 0-2.696 1.84-4.814 4.376-4.814 2.696 0 4.25 2.182 4.25 4.91 0 .129 0 .257-.031.418h-7.231c.221 1.99 1.617 3.113 3.234 3.113zm-.254-7.286c-1.586 0-2.791 1.348-2.981 3.146h5.867c-.095-1.701-1.078-3.146-2.886-3.146zM99.84 11.94c.443 0 .856-.097 1.331-.322v1.188c-.475.257-.983.385-1.649.385-1.459 0-2.569-.738-2.569-2.6V5.008h-1.268v-1.22h1.268v-2.76h1.364V3.82h2.886v1.22h-2.886v5.391c-.032 1.123.603 1.508 1.522 1.508zM103.582 13.03V0h1.363v5.424c.603-.995 1.554-1.797 3.14-1.797 2.22 0 3.489 1.508 3.489 3.69v5.745h-1.364V7.638c0-1.7-.92-2.792-2.537-2.792-1.586 0-2.728 1.156-2.728 2.889v5.295h-1.363zM118.488 12.066c1.268 0 2.125-.514 2.886-1.316l.856.77c-.92 1.027-2.03 1.733-3.774 1.733-2.505 0-4.567-1.957-4.567-4.814 0-2.696 1.84-4.814 4.377-4.814 2.696 0 4.25 2.182 4.25 4.91 0 .129 0 .257-.032.418h-7.231c.222 1.99 1.649 3.113 3.235 3.113zm-.222-7.286c-1.586 0-2.791 1.348-2.981 3.146h5.867c-.127-1.701-1.078-3.146-2.886-3.146zM124.926 13.03V3.82h1.363v2.406c.666-1.54 1.998-2.631 3.711-2.567v1.476h-.095c-1.998 0-3.616 1.445-3.616 4.237v3.69h-1.363v-.031z"/>
    </g>
    <defs>
        <clipPath id="a">
            <path fill="#fff" d="M0 0h130v15.951H0z"/>
        </clipPath>
    </defs>
</svg>
