<svg width="80" height="80" fill="none" xmlns="http://www.w3.org/2000/svg">
    <g clip-path="url(#a)">
        <path d="M54.814 49.43c1.788-3.158 2.682-6.853 2.384-10.786-.715-9.118-8.167-16.448-17.287-17.044C29.06 20.885 20 29.526 20 40.253c0 9.952 7.869 18.116 17.764 18.593h17.527A4.68 4.68 0 0 0 60 54.138a4.68 4.68 0 0 0-4.71-4.708h-.476zm-25.395-9.177c0-5.066 4.113-9.237 9.24-9.237 5.067 0 9.24 4.112 9.24 9.237a9.208 9.208 0 0 1-9.24 9.237c-5.127-.06-9.24-4.172-9.24-9.237z" fill="url(#b)"/>
    </g>
    <defs>
        <linearGradient id="b" x1="20" y1="40.226" x2="60.002" y2="40.226" gradientUnits="userSpaceOnUse">
            <stop offset="0" stop-color="#36C8F5"/>
            <stop offset="1" stop-color="#13E2DD"/>
        </linearGradient>
        <clipPath id="a">
            <path fill="#fff" transform="translate(20 21.602)" d="M0 0h40v37.246H0z"/>
        </clipPath>
    </defs>
</svg>
